<svg xmlns="http://www.w3.org/2000/svg" xmlns:xlink="http://www.w3.org/1999/xlink" viewBox="0 0 64 64" width="64" height="64"><defs><linearGradient id="brass" x1="0" y1="0" x2="0" y2="1"><stop offset="0" stop-color="#fff1b0"/><stop offset="0.18" stop-color="#e8c45a"/><stop offset="0.55" stop-color="#c0942c"/><stop offset="0.85" stop-color="#8a6418"/><stop offset="1" stop-color="#5e420c"/></linearGradient><linearGradient id="brassS" x1="0" y1="0" x2="1" y2="0"><stop offset="0" stop-color="#7a5a14"/><stop offset="0.25" stop-color="#f4d878"/><stop offset="0.6" stop-color="#c49a34"/><stop offset="1" stop-color="#6a4c10"/></linearGradient><linearGradient id="shk" x1="0" y1="0" x2="1" y2="0"><stop offset="0" stop-color="#5a636c"/><stop offset="0.3" stop-color="#ffffff"/><stop offset="0.55" stop-color="#aeb8c2"/><stop offset="1" stop-color="#48505a"/></linearGradient></defs><path d="M19 30 V18 A13 13 0 0 1 45 18 V21" fill="none" stroke="#2a3036" stroke-width="8.4" transform="translate(0 -3)"/><path d="M19 30 V18 A13 13 0 0 1 45 18 V21" fill="none" stroke="url(#shk)" stroke-width="6.4" transform="translate(0 -3)"/><rect x="9" y="28.5" width="46" height="31" rx="5" fill="#3e2c08"/><rect x="9" y="27.5" width="46" height="31" rx="5" fill="url(#brass)"/><rect x="9" y="27.5" width="46" height="31" rx="5" fill="url(#brassS)" fill-opacity=".35"/><path d="M11 36h42M11 50h42" stroke="#6e5010" stroke-opacity=".6" stroke-width="1"/><path d="M11 37h42M11 51h42" stroke="#fff4c0" stroke-opacity=".5" stroke-width=".8"/><rect x="11" y="28.6" width="42" height="3" rx="1.5" fill="#ffffff" fill-opacity=".5"/><circle cx="32" cy="41.5" r="3.6" fill="#2a1c04"/><path d="M30.4 43h3.2l.8 6h-4.8z" fill="#2a1c04"/><circle cx="32" cy="41.5" r="3.6" fill="none" stroke="#fff0b0" stroke-opacity=".5" stroke-width=".7" transform="translate(.5 .5)"/></svg>